# Blender v2.77 (sub 0) OBJ File: ''
# www.blender.org
mtllib box.mtl
o Cube
v 1.000000 -1.000000 -1.000000
v 1.000000 -1.000000 2.253748
v -1.000000 -1.000000 2.253748
v -1.000000 -1.000000 -1.000000
v 1.000000 0.569595 -0.999999
v 0.999999 0.569595 2.253749
v -1.000000 0.569595 2.253748
v -1.000000 0.569595 -1.000000
v 1.000000 0.569595 0.626875
v 0.000000 0.569595 -1.000000
v -0.000001 0.569595 2.253748
v -1.000000 0.569595 0.626874
v -0.000000 -0.906374 0.626874
v 1.000000 0.569595 1.959218
v -0.892025 0.387928 -1.000000
v -0.892026 0.387928 2.253748
v -1.000000 0.569595 -0.765967
v 1.000000 0.569595 -0.765967
v 0.814990 0.569595 -1.000000
v 0.814989 0.569595 2.253749
v -1.000000 0.569595 1.959217
v -0.000000 -0.661800 1.959218
v 0.000000 -0.661800 -0.765967
v 0.814990 -0.661800 0.626875
v -0.892025 -0.843467 0.626874
v -0.892025 -0.843467 -0.765967
v 0.814990 -0.661800 -0.765967
v 0.814989 -0.661800 1.959218
v -0.892026 -0.843467 1.959218
v -0.127173 0.010963 1.464819
v -0.184994 -0.810155 0.895820
v 1.000000 0.569595 2.106483
v -0.946013 0.543530 -1.000000
v -0.946013 0.543530 2.253748
v -1.000000 0.569595 -0.882984
v 1.000000 0.569595 -0.069546
v 0.407495 0.569595 -1.000000
v 0.407494 0.569595 2.253748
v -1.000000 0.569595 1.293046
v -0.000000 -0.170547 2.106483
v 0.907495 -0.170547 0.626875
v 1.000000 0.569595 1.293046
v -0.446012 0.478762 -1.000000
v -0.446013 0.478762 2.253748
v -1.000000 0.569595 -0.069547
v 1.000000 0.569595 -0.882983
v 0.907495 0.569595 -1.000000
v 0.907494 0.569595 2.253749
v -1.000000 0.569595 2.106483
v 0.000000 -0.170547 -0.882983
v -0.946013 -0.162453 0.626874
v -0.892025 -0.843467 -0.069547
v -0.892025 -0.352214 -0.882984
v -0.446013 -0.752633 -0.765967
v -0.946013 -0.196612 -0.765967
v 0.814990 -0.661800 -0.069546
v 0.814990 -0.170547 -0.882983
v 0.907495 -0.170547 -0.765967
v 0.407495 -0.661800 -0.765967
v 0.814989 -0.170547 2.106483
v 0.814989 -0.661800 1.293046
v 0.907494 -0.170547 1.959218
v 0.407494 -0.661800 1.959218
v -0.892026 -0.352214 2.106483
v -0.892025 -0.843467 1.293046
v -0.446013 -0.752633 1.959218
v -0.946013 -0.196612 1.959217
v -0.946013 -0.196612 1.293046
v -0.446013 -0.261380 2.106483
v 0.907495 -0.170547 1.293046
v 0.907494 0.199524 2.106483
v 0.407495 -0.170547 -0.882983
v 0.907495 0.199524 -0.882983
v 0.907495 -0.170547 -0.069546
v -0.946013 0.173459 -0.882984
v -0.446013 -0.261380 -0.882983
v -0.946013 -0.162453 -0.069547
v 0.407494 -0.170547 2.106483
v -0.946013 0.173459 2.106483
v -1.000000 -1.000000 2.253748
v -1.000000 -1.000000 -1.000000
v -1.000000 0.569595 2.253748
v -1.000000 0.569595 -1.000000
v -1.000000 0.569595 0.626874
v -1.000000 0.569595 -0.765967
v -1.000000 0.569595 1.959217
v -1.000000 0.569595 -0.882984
v -1.000000 0.569595 1.293046
v -1.000000 0.569595 -0.069547
v -1.000000 0.569595 2.106483
vt 0.3294 0.4503
vt 0.0002 0.2480
vt 0.3294 0.2480
vt 0.5171 0.2423
vt 0.5012 0.2420
vt 0.5096 0.2027
vt 0.2351 0.6094
vt 0.1647 0.6094
vt 0.3291 0.4507
vt 0.0560 0.7605
vt 0.0111 0.7513
vt 0.0002 0.6114
vt 0.3331 0.3453
vt 0.3331 0.2756
vt 0.4921 0.2488
vt 0.7443 0.5807
vt 0.7708 0.5798
vt 0.8619 0.7373
vt 0.4099 0.1619
vt 0.3633 0.2356
vt 0.3687 0.1589
vt 0.5797 0.3900
vt 0.4941 0.3901
vt 0.4933 0.3195
vt 0.7326 0.2024
vt 0.6502 0.1426
vt 0.7191 0.1297
vt 0.6217 0.2482
vt 0.6682 0.2480
vt 0.6686 0.3191
vt 0.7966 0.0958
vt 0.8213 0.0403
vt 0.8410 0.0872
vt 0.8062 0.1479
vt 0.8016 0.1895
vt 0.7874 0.1135
vt 0.1379 0.0266
vt 0.1850 0.1004
vt 0.1190 0.0740
vt 0.9618 0.0474
vt 0.9745 0.0395
vt 0.9861 0.0769
vt 0.8859 0.0785
vt 0.9047 0.0157
vt 0.9239 0.0629
vt 0.3126 0.1917
vt 0.3217 0.2326
vt 0.3126 0.2326
vt 0.2482 0.1256
vt 0.3303 0.1035
vt 0.3114 0.1509
vt 0.4933 0.4576
vt 0.5338 0.5256
vt 0.4925 0.5251
vt 0.4556 0.1562
vt 0.4965 0.2262
vt 0.4506 0.2324
vt 0.6217 0.5258
vt 0.6685 0.4580
vt 0.6682 0.5261
vt 0.5977 0.2275
vt 0.5181 0.1634
vt 0.5837 0.1514
vt 0.5716 0.0874
vt 0.5060 0.0999
vt 0.6375 0.0750
vt 0.5751 0.5261
vt 0.4047 0.2384
vt 0.4136 0.1099
vt 0.4597 0.1044
vt 0.5004 0.1507
vt 0.2831 0.2216
vt 0.2199 0.1963
vt 0.1568 0.1711
vt 0.2671 0.0782
vt 0.2963 0.2274
vt 0.3056 0.2384
vt 0.3278 0.1558
vt 0.9429 0.0002
vt 0.9528 0.1328
vt 0.9910 0.1169
vt 0.0271 0.0777
vt 0.0247 0.1183
vt 0.0135 0.1141
vt 0.0002 0.1067
vt 0.0017 0.1161
vt 0.9998 0.1137
vt 0.0907 0.1447
vt 0.0530 0.0476
vt 0.7763 0.0501
vt 0.8241 0.1658
vt 0.8249 0.1822
vt 0.8130 0.1875
vt 0.8665 0.0313
vt 0.8694 0.1572
vt 0.9147 0.1485
vt 0.6692 0.3901
vt 0.7064 0.0621
vt 0.7754 0.0492
vt 0.4925 0.2489
vt 0.5338 0.2484
vt 0.3722 0.1071
vt 0.3309 0.1046
vt 0.5315 0.2396
vt 0.6353 0.7372
vt 0.6471 0.7372
vt 0.6353 0.7372
vt 0.6590 0.7372
vt 0.6590 0.5784
vt 0.6590 0.7372
vt 0.3447 0.7373
vt 0.3298 0.7373
vt 0.3447 0.7373
vt 0.3596 0.7373
vt 0.4270 0.7373
vt 0.3596 0.7373
vt 0.6471 0.7372
vt 0.4270 0.7373
vt 0.4944 0.7373
vt 0.3298 0.5785
vt 0.3298 0.5785
vt 0.3298 0.7373
vt 0.5649 0.7372
vt 0.5649 0.7373
vt 0.4944 0.7373
vt 0.0002 0.4503
vt 0.5034 0.2476
vt 0.0002 0.4507
vt 0.2351 0.6110
vt 0.2350 0.6094
vt 0.3291 0.6094
vt 0.0151 0.6094
vt 0.0002 0.6094
vt 0.0973 0.6094
vt 0.0300 0.6094
vt 0.2018 0.6114
vt 0.1007 0.7708
vt 0.1923 0.7714
vt 0.1829 0.7729
vt 0.2018 0.7696
vt 0.0056 0.7670
vt 0.0002 0.7696
vt 0.1418 0.7718
vt 0.4904 0.5780
vt 0.3331 0.4151
vt 0.3298 0.4819
vt 0.3315 0.4818
vt 0.3331 0.5780
vt 0.3332 0.2622
vt 0.3333 0.2480
vt 0.3331 0.4818
vt 0.8236 0.5784
vt 0.8619 0.5784
vt 0.6594 0.7373
vt 0.6594 0.5784
vt 0.6703 0.5968
vt 0.7155 0.5876
vt 0.6649 0.5811
vt 0.7973 0.5789
vt 0.5751 0.2480
vt 0.6637 0.2153
vt 0.2040 0.0530
vt 0.0719 0.0002
vt 0.8246 0.1881
vt 0.6590 0.5784
vn 0.0000 -1.0000 0.0000
vn 0.9383 0.1279 -0.3213
vn 1.0000 -0.0000 0.0000
vn -0.0000 -0.0000 1.0000
vn -1.0000 -0.0000 0.0000
vn 0.0000 0.0000 -1.0000
vn 0.0000 0.1951 -0.9808
vn -0.2874 0.9578 0.0000
vn 0.9973 0.0735 0.0000
vn -0.1996 0.9799 0.0000
vn -0.0471 0.2315 0.9717
vn 0.9738 0.0686 0.2170
vn -0.9827 0.1851 -0.0000
vn -0.7698 0.1924 0.6086
vn -0.0000 0.2317 0.9728
vn 0.0000 0.3697 -0.9291
vn 0.0000 1.0000 0.0000
vn -0.0397 0.1950 -0.9800
vn 0.9975 0.0703 0.0000
vn 0.9965 0.0832 0.0000
vn 0.9975 0.0703 0.0036
vn -0.0653 0.9815 -0.1802
vn -0.0584 0.2867 -0.9563
vn -0.9923 0.1240 -0.0000
vn -0.9702 0.2425 -0.0000
vn -0.8284 0.2071 -0.5204
vn -0.0000 0.1562 0.9877
vn 0.0000 0.3015 0.9535
vn 0.9408 0.0785 0.3297
vn 0.8355 0.0858 0.5427
vn 0.9112 0.1242 0.3927
vn -0.0318 0.1561 0.9872
vn 0.0703 0.9975 -0.0000
vn 0.9969 0.0790 0.0000
vn 0.9975 0.0703 -0.0034
vn 0.0000 0.2872 -0.9579
vn 0.8849 0.0909 -0.4568
vn 0.9603 0.0801 -0.2673
vn 0.9823 0.0692 -0.1739
vn 0.4348 0.9005 0.0000
vn -0.1462 0.9743 0.1711
vn 0.9908 0.1350 0.0000
vn -0.7761 0.1461 0.6135
vn -0.6154 0.1538 -0.7731
vn 0.9969 0.0790 0.0041
vn -0.1460 0.9730 -0.1786
vn -0.9473 0.1184 -0.2975
vn -0.8362 0.1575 -0.5253
vn -0.9238 0.1155 0.3651
vn -0.5298 0.1324 0.8377
vn 0.9466 0.0972 0.3074
vn 0.6559 0.2276 0.7197
vn -0.0654 0.9828 0.1726
vn 0.9969 0.0790 -0.0039
vn 0.0000 0.2871 -0.9579
vn 0.7292 0.2530 -0.6358
vn 0.9635 0.0990 -0.2487
g Cube_Cube_Material
usemtl Material
s off
f 1/1/1 3/2/1 4/3/1
f 49/4/2 34/5/2 79/6/2
f 36/7/3 9/8/3 1/9/3
f 44/10/4 16/11/4 3/12/4
f 45/13/5 17/14/5 4/15/5
f 10/16/6 37/17/6 1/18/6
f 40/19/7 38/20/7 78/21/7
f 13/22/8 24/23/8 56/24/8
f 45/25/9 51/26/9 77/27/9
f 54/28/10 26/29/10 52/30/10
f 53/31/11 54/32/11 76/33/11
f 75/34/12 17/35/12 55/36/12
f 56/37/13 41/38/13 74/39/13
f 57/40/14 58/41/14 73/42/14
f 50/43/15 59/44/15 72/45/15
f 71/46/16 20/47/16 48/48/16
f 70/49/13 28/50/13 62/51/13
f 61/52/17 63/53/17 28/54/17
f 69/55/18 16/56/18 44/57/18
f 66/58/10 65/59/10 29/60/10
f 39/61/19 67/62/19 68/63/19
f 65/64/20 67/62/20 29/65/20
f 25/66/20 68/63/20 65/64/20
f 51/26/21 39/61/21 68/63/21
f 65/59/22 22/67/22 13/22/22
f 40/19/18 44/57/18 11/68/18
f 22/69/23 69/55/23 40/19/23
f 66/70/23 64/71/23 69/55/23
f 22/67/17 63/53/17 61/52/17
f 70/49/24 14/72/24 42/73/24
f 41/38/24 42/73/24 9/74/24
f 41/38/13 61/75/13 70/49/13
f 32/76/17 48/48/17 6/77/17
f 14/72/25 71/46/25 32/76/25
f 62/51/26 60/78/26 71/46/26
f 72/45/15 27/79/15 57/40/15
f 37/80/27 57/40/27 19/81/27
f 37/80/27 50/43/27 72/45/27
f 73/82/25 18/83/25 46/84/25
f 47/85/17 46/84/17 5/86/17
f 19/81/28 73/42/28 47/87/28
f 36/88/24 41/38/24 9/74/24
f 18/83/24 74/39/24 36/88/24
f 58/89/13 56/37/13 74/39/13
f 53/31/29 55/36/29 26/90/29
f 15/91/30 75/34/30 53/31/30
f 33/92/31 35/93/31 75/34/31
f 76/33/11 23/94/11 50/43/11
f 43/95/32 50/43/32 10/96/32
f 15/91/32 76/33/32 43/95/32
f 52/30/33 25/97/33 13/22/33
f 52/98/34 51/26/34 25/66/34
f 55/36/20 52/98/20 26/99/20
f 17/35/35 77/27/35 55/36/35
f 27/100/17 59/101/17 56/24/17
f 78/21/7 20/47/7 60/78/7
f 63/102/36 60/78/36 28/103/36
f 22/69/36 78/21/36 63/102/36
f 79/6/37 16/56/37 64/71/37
f 67/62/38 64/71/38 29/65/38
f 21/104/39 79/6/39 67/62/39
f 17/105/4 87/106/4 85/107/4
f 8/108/4 81/109/4 83/110/4
f 49/111/4 82/112/4 90/113/4
f 21/114/4 88/115/4 86/116/4
f 35/117/4 83/110/4 87/106/4
f 39/118/4 84/119/4 88/115/4
f 3/120/4 81/109/4 80/121/4
f 7/122/4 80/121/4 82/112/4
f 45/123/4 85/107/4 89/124/4
f 12/125/4 89/124/4 84/119/4
f 49/111/4 86/116/4 90/113/4
f 1/1/1 2/126/1 3/2/1
f 49/4/40 7/127/40 34/5/40
f 2/128/3 1/9/3 9/8/3
f 46/129/3 18/130/3 1/9/3
f 1/9/3 5/131/3 46/129/3
f 32/132/3 6/133/3 2/128/3
f 9/8/3 42/134/3 2/128/3
f 14/135/3 32/132/3 2/128/3
f 1/9/3 18/130/3 36/7/3
f 42/134/3 14/135/3 2/128/3
f 3/12/4 2/136/4 11/137/4
f 48/138/4 20/139/4 2/136/4
f 2/136/4 6/140/4 48/138/4
f 34/141/4 7/142/4 16/11/4
f 11/137/4 44/10/4 3/12/4
f 16/11/4 7/142/4 3/12/4
f 2/136/4 20/139/4 38/143/4
f 38/143/4 11/137/4 2/136/4
f 4/15/5 3/144/5 12/145/5
f 49/146/5 21/147/5 3/144/5
f 3/144/5 7/148/5 49/146/5
f 35/149/5 8/150/5 4/15/5
f 12/145/5 45/13/5 4/15/5
f 17/14/5 35/149/5 4/15/5
f 3/144/5 21/147/5 39/151/5
f 39/151/5 12/145/5 3/144/5
f 47/152/6 5/153/6 1/18/6
f 4/154/6 8/155/6 15/156/6
f 15/156/6 43/157/6 4/154/6
f 8/155/6 33/158/6 15/156/6
f 47/152/6 1/18/6 19/159/6
f 10/16/6 1/18/6 4/154/6
f 19/159/6 1/18/6 37/17/6
f 4/154/6 43/157/6 10/16/6
f 40/19/7 11/68/7 38/20/7
f 56/24/17 59/101/17 23/160/17
f 23/160/41 13/22/41 56/24/41
f 45/25/9 12/161/9 51/26/9
f 53/31/11 26/90/11 54/32/11
f 75/34/42 35/93/42 17/35/42
f 56/37/13 24/162/13 41/38/13
f 57/40/43 27/79/43 58/41/43
f 50/43/15 23/94/15 59/44/15
f 71/46/44 60/78/44 20/47/44
f 70/49/13 61/75/13 28/50/13
f 69/55/18 64/71/18 16/56/18
f 39/61/19 21/104/19 67/62/19
f 65/64/20 68/63/20 67/62/20
f 25/66/45 51/26/45 68/63/45
f 51/26/9 12/161/9 39/61/9
f 22/67/10 65/59/10 66/58/10
f 25/97/33 65/59/33 13/22/33
f 40/19/18 69/55/18 44/57/18
f 22/69/23 66/70/23 69/55/23
f 66/70/23 29/65/23 64/71/23
f 61/52/8 24/23/8 13/22/8
f 13/22/46 22/67/46 61/52/46
f 70/49/24 62/51/24 14/72/24
f 41/38/24 70/49/24 42/73/24
f 41/38/13 24/162/13 61/75/13
f 32/76/26 71/46/26 48/48/26
f 14/72/47 62/51/47 71/46/47
f 62/51/48 28/103/48 60/78/48
f 72/45/15 59/44/15 27/79/15
f 37/80/27 72/45/27 57/40/27
f 37/80/27 10/96/27 50/43/27
f 73/82/49 58/89/49 18/83/49
f 47/85/14 73/82/14 46/84/14
f 19/81/50 57/40/50 73/42/50
f 36/88/24 74/39/24 41/38/24
f 18/83/24 58/89/24 74/39/24
f 58/89/13 27/163/13 56/37/13
f 53/31/51 75/34/51 55/36/51
f 15/91/52 33/92/52 75/34/52
f 33/92/40 8/164/40 35/93/40
f 76/33/11 54/32/11 23/94/11
f 43/95/32 76/33/32 50/43/32
f 15/91/32 53/31/32 76/33/32
f 13/22/53 23/160/53 52/30/53
f 54/28/10 52/30/10 23/160/10
f 52/98/34 77/27/34 51/26/34
f 55/36/54 77/27/54 52/98/54
f 17/35/9 45/25/9 77/27/9
f 78/21/7 38/20/7 20/47/7
f 63/102/36 78/21/36 60/78/36
f 22/69/55 40/19/55 78/21/55
f 79/6/56 34/5/56 16/56/56
f 67/62/57 79/6/57 64/71/57
f 21/104/42 49/4/42 79/6/42
f 17/105/4 35/117/4 87/106/4
f 8/108/4 4/165/4 81/109/4
f 49/111/4 7/122/4 82/112/4
f 21/114/4 39/118/4 88/115/4
f 35/117/4 8/108/4 83/110/4
f 39/118/4 12/125/4 84/119/4
f 3/120/4 4/165/4 81/109/4
f 7/122/4 3/120/4 80/121/4
f 45/123/4 17/105/4 85/107/4
f 12/125/4 45/123/4 89/124/4
f 49/111/4 21/114/4 86/116/4
