# Blender v2.77 (sub 0) OBJ File: 'Table_de_nuit_Final.obj'
# www.blender.org
mtllib Table_de_nuit_Final.mtl
o default_1_1
v 23.011961 27.673225 30.900555
v 21.262207 27.084589 30.900553
v 20.983608 27.723949 30.900557
v 3.595463 34.752254 30.895281
v 21.180676 28.393057 30.900553
v 22.640614 26.980373 30.900547
v 21.761101 28.778721 30.900551
v 22.848495 28.351374 30.900553
v 21.885948 26.774126 30.900553
v 22.366150 28.729609 30.900558
v 42.500000 35.297573 0.000006
v 43.669235 37.065552 0.000006
v 43.648235 35.313274 0.000005
v 44.035049 36.195026 0.000006
v 42.500000 0.000000 0.000000
v 1.500000 0.000000 0.000000
v 1.500000 35.297573 0.000006
v 0.002702 36.020905 0.000006
v 0.092827 36.710724 0.000006
v 0.327080 35.337128 0.000005
v 0.399999 37.100002 0.000006
v 0.359364 35.306072 33.640144
v 43.648026 35.305290 33.646179
v 43.996559 36.020382 33.996216
v -0.015937 36.098015 34.016014
v 43.914413 36.683865 33.914162
v 0.207275 36.919872 33.792793
v 43.608727 37.097805 33.610870
v 40.611984 35.309700 30.576498
v 40.700001 35.297569 31.600569
v 3.286034 35.297569 31.649576
v 3.415222 35.297787 30.624945
v 1.500000 35.297569 31.600569
v 1.926315 35.297569 31.926428
v 2.629135 35.297573 31.989664
v 41.829102 35.297569 31.989672
v 41.126312 35.297558 31.926435
v 42.486031 35.297562 31.649588
v 1.513969 -0.000005 31.649578
v 3.299999 -0.000005 28.600512
v 40.700001 -0.000005 28.600512
v 42.500000 -0.000005 31.600563
v 42.073639 -0.000005 31.926453
v 40.702957 -0.000005 31.641655
v 41.370895 -0.000005 31.989660
v 2.368422 -0.000005 32.033146
v 3.295250 -0.000005 31.653782
v 3.299999 7.009442 28.600513
v 3.299999 7.064609 30.623144
v 3.299999 8.811876 1.800034
v 3.299999 21.328747 1.800036
v 3.299999 8.797919 30.549520
v 3.299999 8.043216 30.913908
v 40.697563 21.328741 30.151524
v 40.700001 21.328747 1.800036
v 40.700001 8.811876 1.800034
v 40.700001 7.009442 28.600513
v 40.700005 7.035594 30.558283
v 40.700001 8.775455 30.575159
v 40.700005 7.879036 30.933144
v 3.475662 21.329584 30.708351
v 3.307499 21.328735 30.282272
v 40.528137 21.327616 30.704136
v 3.591534 21.576723 30.890793
v 40.408287 21.582087 30.890980
v 40.413742 34.848446 30.885344
v 21.357359 26.500629 33.676922
v 22.973946 28.750742 33.698200
v 20.659781 27.273350 33.684093
v 22.276482 26.375887 33.680843
v 23.428169 27.698656 33.683773
v 23.017876 26.790995 33.685253
v 23.300644 27.167404 33.671566
v 22.134491 29.217173 33.679070
v 21.646851 29.174543 33.680172
v 20.781097 28.454716 33.700241
v 23.395744 28.222956 33.649906
v 22.622952 29.108927 33.648624
v 20.870682 28.761911 33.613361
v 20.573532 28.174086 33.620583
v 20.945173 26.746716 33.615356
v 21.859892 26.311596 33.615875
v 22.849138 26.531584 33.575352
v 23.141953 28.755732 33.602421
v 21.279318 29.148630 33.537663
v 20.476768 27.679771 33.544971
v 23.725325 27.914801 32.603333
v 23.357605 28.735956 33.123417
v 22.499601 29.461624 32.604511
v 21.750732 29.501348 32.617596
v 20.674992 28.916483 32.602829
v 20.303448 28.135960 32.604439
v 20.422222 27.076839 32.603336
v 20.850330 26.490427 32.604465
v 21.306435 26.301722 33.091679
v 21.825686 26.063923 32.603321
v 22.546848 26.141943 32.604443
v 23.499130 27.084253 33.123783
v 23.393263 28.815546 32.602215
v 23.441191 26.827902 32.602215
v 23.313957 27.909540 32.546494
v 22.822586 28.937174 32.565418
v 21.041565 28.681093 32.532490
v 20.600403 27.892389 32.566120
v 20.740067 27.304560 32.540745
v 21.424988 26.592432 32.536915
v 22.352715 26.500452 32.541821
v 23.272003 27.029673 32.580021
v 23.181015 28.238428 32.502823
v 21.742998 29.029398 32.493553
v 23.039764 27.142351 32.448261
v 22.837812 28.630816 32.419971
v 22.284245 28.854845 32.350849
v 21.189386 28.433977 32.261532
v 20.989746 28.197748 32.320621
v 21.002747 27.219416 32.390873
v 21.436668 26.926821 32.229725
v 22.489143 26.874594 32.228138
v 22.999647 28.054203 32.175472
v 22.608635 28.625391 32.184437
v 21.879360 28.815430 32.182613
v 21.419064 28.626865 32.175900
v 20.995270 27.969782 32.169315
v 20.993599 27.614618 32.169346
v 21.152363 27.212702 32.148106
v 21.912970 26.755411 32.173023
v 22.795025 27.138960 32.175766
v 22.983871 27.518389 32.175892
vt 0.9187 0.7274
vt 0.9189 1.1174
vt 0.5222 0.9055
vt 0.0813 0.7272
vt 0.4838 0.8888
vt 0.4777 0.9069
vt 0.0815 1.1141
vt 0.4821 0.9259
vt 0.4948 0.9368
vt 0.5186 0.9247
vt 0.5137 0.8863
vt 0.4975 0.8800
vt 0.5082 0.9359
vt 0.9659 2.0388
vt 0.9919 2.0902
vt 0.9916 2.0397
vt 0.9992 2.0651
vt 0.9659 1.0003
vt 0.0341 1.0003
vt 0.0341 2.0388
vt 0.0005 2.0601
vt 0.0029 2.0799
vt 0.0080 2.0405
vt 0.0091 2.0918
vt 0.9995 1.0606
vt 0.0006 1.0630
vt 0.9916 1.0504
vt 0.0085 1.0503
vt 0.9975 1.0819
vt 0.0054 1.0919
vt 0.9911 1.1028
vt 0.0743 1.1082
vt 0.0780 1.1374
vt 0.9224 1.1394
vt 0.0341 1.1091
vt 0.0442 1.1006
vt 0.0597 1.0982
vt 0.9506 1.0982
vt 0.9652 1.1082
vt 0.9351 1.1006
vt 0.9250 1.1091
vt 0.0348 0.0698
vt 0.0750 0.1589
vt 0.9250 0.1589
vt 0.9659 0.0706
vt 0.9558 0.0621
vt 0.9255 0.0700
vt 0.9403 0.0598
vt 0.0539 0.0598
vt 0.0743 0.0699
vt 0.0759 0.7371
vt 0.0750 0.3651
vt 0.0750 0.3099
vt 0.0750 0.3285
vt 0.0750 0.3604
vt 0.0750 1.2066
vt 0.0750 1.5748
vt 0.9247 0.7407
vt 0.9250 1.5748
vt 0.9250 1.2066
vt 0.9250 0.3651
vt 0.9250 0.3094
vt 0.9250 0.3590
vt 0.9250 0.3240
vt 0.9210 0.7247
vt 0.0790 0.7246
vt 0.4852 0.7909
vt 0.5219 0.8550
vt 0.4702 0.8121
vt 0.5060 0.7873
vt 0.5324 0.8267
vt 0.5229 0.7986
vt 0.5292 0.8101
vt 0.5027 0.8691
vt 0.4920 0.8679
vt 0.4732 0.8460
vt 0.5314 0.8421
vt 0.5138 0.8665
vt 0.4748 0.8572
vt 0.4680 0.8400
vt 0.4763 0.7987
vt 0.4969 0.7861
vt 0.5191 0.7946
vt 0.5254 0.8572
vt 0.4851 0.8716
vt 0.4662 0.8277
vt 0.5382 0.8594
vt 0.5299 0.8714
vt 0.5091 0.9054
vt 0.4911 0.9031
vt 0.4723 0.8910
vt 0.4623 0.8657
vt 0.4644 0.8401
vt 0.4759 0.8195
vt 0.4843 0.8010
vt 0.4943 0.8092
vt 0.5136 0.8116
vt 0.5330 0.8244
vt 0.5305 0.8879
vt 0.5316 0.8315
vt 0.5303 0.8638
vt 0.5181 0.8923
vt 0.4793 0.8880
vt 0.4690 0.8639
vt 0.4731 0.8476
vt 0.4871 0.8270
vt 0.5065 0.8238
vt 0.5274 0.8380
vt 0.5268 0.8756
vt 0.4951 0.8978
vt 0.5230 0.8438
vt 0.5182 0.8884
vt 0.5066 0.8981
vt 0.4799 0.8872
vt 0.4771 0.8791
vt 0.4772 0.8475
vt 0.4869 0.8436
vt 0.5111 0.8425
vt 0.5222 0.8794
vt 0.5137 0.8957
vt 0.4969 0.9012
vt 0.4865 0.8961
vt 0.4771 0.8767
vt 0.4771 0.8663
vt 0.4810 0.8554
vt 0.4983 0.8415
vt 0.5186 0.8523
vt 0.5226 0.8636
vn 0.0006 -0.0000 1.0000
vn 0.0006 0.0007 1.0000
vn -0.0128 -0.0006 0.9999
vn -0.0004 -0.0005 1.0000
vn -0.0004 -0.0001 1.0000
vn -0.5832 0.0001 0.8124
vn -0.0002 0.0002 1.0000
vn 0.0001 0.0014 1.0000
vn 0.0007 0.0005 1.0000
vn 0.0003 -0.0007 1.0000
vn -0.0000 -0.0015 1.0000
vn 0.0003 0.0017 1.0000
vn -0.0000 0.0000 -1.0000
vn 0.4405 -0.6648 -0.6033
vn 0.5049 -0.2221 -0.8341
vn -0.7515 -0.1193 -0.6488
vn -0.6983 0.2947 -0.6523
vn 0.0007 -0.1329 0.9911
vn -0.0013 -0.0673 0.9977
vn 0.0100 -0.8083 0.5886
vn -0.4334 -0.7901 0.4335
vn 0.0009 0.3104 0.9506
vn -0.0039 0.7553 0.6553
vn 0.0002 0.8570 0.5154
vn 0.0008 1.0000 -0.0010
vn -0.0020 1.0000 0.0027
vn 0.4592 -0.8295 0.3180
vn 0.6697 -0.7364 0.0964
vn -0.7173 -0.4525 0.5298
vn -0.0478 -0.9989 -0.0011
vn -0.0331 -0.9995 -0.0009
vn -0.0056 -1.0000 0.0010
vn -0.0011 -1.0000 0.0039
vn -0.0001 -1.0000 0.0043
vn 0.0002 -1.0000 0.0044
vn 0.0050 -1.0000 0.0010
vn -0.0001 -1.0000 0.0038
vn -0.5162 -0.8100 0.2784
vn 0.0137 -0.9999 0.0000
vn -0.6696 -0.6034 0.4329
vn 0.0000 -1.0000 -0.0000
vn 0.3163 -0.9487 0.0005
vn 0.2757 -0.6500 0.7082
vn 0.0464 -0.8555 0.5158
vn -0.0128 -0.6290 0.7773
vn 0.6635 -0.6011 0.4456
vn -0.8966 0.0003 0.4428
vn -1.0000 -0.0002 0.0002
vn -1.0000 0.0000 0.0004
vn -0.3630 0.0014 0.9318
vn 0.1933 0.0011 0.9811
vn 0.7535 -0.6417 0.1428
vn 1.0000 -0.0005 0.0004
vn 1.0000 -0.0005 0.0009
vn 1.0000 -0.0005 0.0005
vn 1.0000 -0.0006 -0.0009
vn 1.0000 0.0000 -0.0000
vn 1.0000 -0.0002 -0.0001
vn -0.8550 -0.0011 0.5187
vn -0.7441 -0.6651 0.0631
vn -1.0000 -0.0000 -0.0001
vn -1.0000 -0.0001 -0.0001
vn -1.0000 0.0000 0.0000
vn -1.0000 -0.0002 0.0008
vn -1.0000 -0.0002 0.0005
vn -1.0000 -0.0002 -0.0003
vn -1.0000 0.0001 0.0048
vn -0.3628 0.0010 0.9319
vn -0.4578 -0.0016 0.8891
vn -0.0896 0.0012 0.9960
vn 0.4555 0.0016 0.8902
vn 0.8545 0.0010 0.5195
vn 0.8966 -0.0003 0.4428
vn 1.0000 0.0000 0.0004
vn 1.0000 0.0002 0.0002
vn 0.6100 -0.7696 0.1887
vn -0.4267 -0.7816 0.4551
vn 0.0001 -0.5950 0.8037
vn 0.0001 -0.5929 0.8053
vn 0.0015 0.8279 0.5608
vn -0.0003 0.8468 0.5319
vn -0.0003 0.0813 0.9967
vn 0.0005 -0.0196 0.9998
vn -0.0013 -0.7938 0.6081
vn 0.0008 -0.8350 0.5502
vn 0.0000 1.0000 0.0005
vn 0.0003 1.0000 0.0009
vn 0.0000 -0.0000 1.0000
vn 0.0000 -0.9996 0.0273
vn -0.0007 -0.9999 0.0138
vn -0.0009 0.4443 0.8959
vn 0.0010 0.5571 0.8304
vn -0.8320 0.0001 0.5548
vn -0.8439 -0.0004 0.5366
vn 0.8416 -0.0001 0.5400
vn 0.8416 -0.0001 0.5401
vn -0.9639 0.2664 0.0014
vn -0.7842 0.6205 -0.0012
vn -0.9682 0.2500 0.0020
vn -0.9032 -0.4292 0.0005
vn -0.9030 -0.4296 0.0005
vn 0.8988 -0.4384 -0.0013
vn 0.9274 0.3740 -0.0030
vn 0.9912 -0.1323 0.0011
vn 0.9497 0.3131 0.0018
vn 0.9206 0.3906 -0.0021
vn 0.8033 0.5955 0.0009
vn -0.2845 -0.5533 0.7828
vn 0.2461 0.2530 0.9357
vn -0.5761 -0.2495 0.7784
vn 0.1248 -0.6221 0.7729
vn 0.4940 -0.0902 0.8647
vn 0.4404 -0.3846 0.8112
vn 0.5945 -0.2779 0.7545
vn 0.0487 0.6480 0.7601
vn -0.1168 0.6101 0.7836
vn -0.4023 0.2117 0.8907
vn 0.8800 0.0848 0.4674
vn 0.6976 0.1985 0.6885
vn 0.3274 0.6773 0.6588
vn -0.6048 0.5240 0.5997
vn -0.7603 0.2041 0.6166
vn -0.5811 -0.5582 0.5922
vn -0.0739 -0.8147 0.5751
vn 0.4545 -0.7364 0.5012
vn 0.6217 0.5597 0.5479
vn -0.4158 0.7843 0.4604
vn -0.8764 -0.0643 0.4774
vn 0.8667 0.2351 -0.4400
vn 0.8606 0.4790 0.1732
vn 0.6741 0.6874 0.2702
vn 0.2561 0.8059 -0.5338
vn 0.0120 0.6690 -0.7431
vn -0.3374 0.9410 -0.0251
vn -0.6418 0.5700 -0.5130
vn -0.8344 0.1587 -0.5278
vn -0.7689 -0.3284 -0.5486
vn -0.5658 -0.6357 -0.5251
vn -0.4312 -0.8752 0.2194
vn -0.0001 -0.9999 -0.0139
vn 0.2981 -0.8046 -0.5136
vn 0.7307 -0.6081 0.3102
vn 0.9176 -0.2513 0.3079
vn 0.9637 -0.1105 0.2432
vn 0.6578 0.5113 -0.5530
vn -0.1509 -0.4213 -0.8943
vn 0.6793 -0.4788 -0.5561
vn 0.7194 -0.6520 0.2395
vn 0.8659 -0.4802 0.1398
vn 0.4741 -0.1299 -0.8709
vn 0.1200 0.0505 -0.9915
vn 0.0785 0.1802 -0.9805
vn -0.3267 0.3012 -0.8959
vn -0.2991 0.0043 -0.9542
vn -0.6377 -0.2517 -0.7280
vn -0.2023 -0.3883 -0.8990
vn 0.1282 -0.4050 -0.9053
vn 0.1983 -0.1066 -0.9743
vn 0.4938 -0.0780 -0.8660
vn 0.8411 0.2784 -0.4637
vn 0.8911 0.4288 -0.1488
vn 0.4044 0.4253 -0.8096
vn -0.1045 0.5229 -0.8460
vn 0.5434 -0.3602 -0.7582
vn 0.5414 0.4737 -0.6946
vn 0.1836 0.7687 -0.6127
vn -0.7545 0.4966 -0.4290
vn -0.7213 0.3600 -0.5917
vn -0.7256 0.0045 -0.6881
vn -0.6157 -0.4524 -0.6452
vn -0.5378 -0.7544 -0.3763
vn 0.4497 -0.8164 -0.3624
vn 0.8953 0.2700 -0.3542
vn 0.5345 0.7954 -0.2857
vn -0.0537 0.9413 -0.3333
vn -0.3652 0.9023 -0.2292
vn -0.5757 0.7407 -0.3464
vn -0.9539 0.2091 -0.2152
vn -0.9286 -0.1678 -0.3311
vn -0.6089 -0.7089 -0.3559
vn -0.7114 -0.6831 -0.1654
vn -0.0650 -0.9378 -0.3409
vn 0.7319 -0.6180 -0.2869
vn 0.9154 -0.2450 -0.3193
vn -0.8982 -0.3410 -0.2773
vn 0.9903 -0.1315 -0.0452
vn 0.6164 -0.7866 -0.0353
vn -0.0888 -0.9955 -0.0320
vn -0.7254 -0.6871 -0.0414
vn -0.9156 -0.4000 -0.0397
vn -0.9892 0.1424 -0.0354
vn -0.9581 0.2829 -0.0457
vn -0.6528 0.7566 -0.0380
vn -0.5518 0.8326 -0.0490
vn -0.0134 0.9996 -0.0268
vn 0.0809 0.9961 -0.0360
vn 0.5184 0.8547 -0.0289
vn 0.8386 0.5430 -0.0442
usemtl default_1_1
s 1
f 65/1/1 66/2/2 1/3/1
f 64/4/3 2/5/4 3/6/5
f 64/4/3 3/6/5 4/7/6
f 4/7/6 3/6/5 5/8/7
f 4/7/6 5/8/7 7/9/8
f 66/2/2 8/10/9 1/3/1
f 1/3/1 6/11/10 65/1/1
f 65/1/1 6/11/10 9/12/11
f 65/1/1 9/12/11 64/4/3
f 66/2/2 10/13/12 8/10/9
f 64/4/3 9/12/11 2/5/4
f 4/7/6 7/9/8 66/2/2
f 66/2/2 7/9/8 10/13/12
f 11/14/13 12/15/13 13/16/14
f 13/16/14 12/15/13 14/17/15
f 15/18/13 16/19/13 11/14/13
f 11/14/13 16/19/13 17/20/13
f 18/21/16 19/22/17 20/23/13
f 20/23/13 19/22/17 17/20/13
f 17/20/13 19/22/17 21/24/13
f 17/20/13 21/24/13 11/14/13
f 11/14/13 21/24/13 12/15/13
f 24/25/18 25/26/19 23/27/20
f 23/27/20 25/26/19 22/28/21
f 25/26/19 24/25/18 26/29/22
f 25/26/19 26/29/22 27/30/23
f 27/30/23 26/29/22 28/31/24
f 12/15/25 21/24/26 28/31/24
f 28/31/24 21/24/26 27/30/23
f 31/32/27 32/33/28 29/34/29
f 20/23/30 17/20/31 22/28/21
f 22/28/21 17/20/31 33/35/32
f 22/28/21 33/35/32 34/36/33
f 34/36/33 35/37/34 22/28/21
f 22/28/21 35/37/34 23/27/20
f 23/27/20 35/37/34 31/32/27
f 23/27/20 36/38/35 38/39/36
f 37/40/37 31/32/27 30/41/38
f 30/41/38 31/32/27 29/34/29
f 31/32/27 37/40/37 23/27/20
f 23/27/20 37/40/37 36/38/35
f 11/14/39 13/16/14 38/39/36
f 38/39/36 13/16/14 23/27/20
f 39/42/40 16/19/41 40/43/42
f 41/44/41 42/45/41 43/46/43
f 41/44/41 43/46/43 44/47/41
f 44/47/41 43/46/43 45/48/44
f 40/43/42 16/19/41 41/44/41
f 41/44/41 16/19/41 15/18/41
f 41/44/41 15/18/41 42/45/41
f 39/42/40 40/43/42 46/49/45
f 46/49/45 40/43/42 47/50/46
f 33/35/47 17/20/48 39/42/40
f 39/42/40 17/20/48 16/19/49
f 33/35/47 39/42/40 34/36/50
f 34/36/50 39/42/40 46/49/45
f 34/36/50 46/49/45 35/37/51
f 35/37/51 46/49/45 47/50/46
f 35/37/51 47/50/46 31/32/27
f 32/33/28 31/32/27 62/51/52
f 62/51/52 31/32/27 47/50/46
f 40/43/42 48/52/53 47/50/46
f 47/50/46 48/52/53 49/53/54
f 53/54/55 52/55/56 62/51/52
f 50/56/57 51/57/58 52/55/56
f 52/55/56 51/57/58 62/51/52
f 49/53/54 53/54/55 47/50/46
f 47/50/46 53/54/55 62/51/52
f 30/41/38 29/34/29 44/47/59
f 44/47/59 29/34/29 54/58/60
f 54/58/60 55/59/61 56/60/62
f 57/61/63 41/44/64 58/62/65
f 58/62/65 41/44/64 44/47/59
f 56/60/62 59/63/66 54/58/60
f 44/47/59 60/64/67 58/62/65
f 59/63/66 60/64/67 54/58/60
f 54/58/60 60/64/67 44/47/59
f 30/41/38 44/47/59 37/40/68
f 37/40/68 44/47/59 45/48/69
f 37/40/68 45/48/69 36/38/70
f 36/38/71 45/48/44 43/46/43
f 36/38/71 43/46/43 38/39/72
f 38/39/72 43/46/43 42/45/73
f 11/14/74 38/39/72 15/18/75
f 15/18/75 38/39/72 42/45/73
f 51/57/41 55/59/41 62/51/52
f 62/51/52 55/59/41 54/58/60
f 54/58/60 63/65/76 61/66/77
f 54/58/60 61/66/77 62/51/52
f 61/66/77 63/65/76 64/4/78
f 63/65/79 65/1/79 64/4/79
f 59/63/80 52/55/81 53/54/82
f 59/63/80 53/54/82 60/64/83
f 60/64/83 53/54/82 49/53/84
f 60/64/83 49/53/84 58/62/85
f 50/56/86 52/55/81 56/60/87
f 56/60/87 52/55/81 59/63/80
f 51/57/88 50/56/88 55/59/88
f 55/59/88 50/56/88 56/60/88
f 48/52/89 57/61/90 49/53/84
f 49/53/84 57/61/90 58/62/85
f 48/52/88 40/43/88 57/61/88
f 57/61/88 40/43/88 41/44/88
f 4/7/91 66/2/91 32/33/91
f 66/2/92 29/34/29 32/33/28
f 61/66/77 32/33/28 62/51/52
f 4/7/6 32/33/93 64/4/3
f 61/66/94 64/4/94 32/33/94
f 66/2/95 65/1/95 63/65/95
f 54/58/60 29/34/29 63/65/76
f 63/65/96 29/34/96 66/2/96
f 27/30/97 21/24/98 19/22/17
f 27/30/97 19/22/17 25/26/99
f 25/26/99 19/22/17 18/21/16
f 20/23/30 22/28/21 25/26/100
f 20/23/101 25/26/99 18/21/16
f 23/27/20 13/16/14 14/17/15
f 23/27/102 14/17/103 24/25/104
f 14/17/103 26/29/105 24/25/104
f 26/29/105 14/17/103 12/15/106
f 26/29/105 12/15/106 28/31/107
f 67/67/108 68/68/109 69/69/110
f 67/67/108 70/70/111 68/68/109
f 68/68/109 70/70/111 71/71/112
f 71/71/112 70/70/111 72/72/113
f 71/71/112 72/72/113 73/73/114
f 74/74/115 75/75/116 76/76/117
f 69/69/110 68/68/109 76/76/117
f 74/74/115 76/76/117 68/68/109
f 71/71/118 77/77/119 68/68/109
f 68/68/109 78/78/120 74/74/115
f 76/76/117 75/75/116 79/79/121
f 76/76/117 80/80/122 69/69/110
f 69/69/110 81/81/123 67/67/108
f 70/70/111 67/67/108 82/82/124
f 72/72/113 70/70/111 83/83/125
f 68/68/109 77/77/119 84/84/126
f 68/68/109 84/84/126 78/78/120
f 75/75/116 85/85/127 79/79/121
f 69/69/110 80/80/122 86/86/128
f 76/76/117 79/79/121 80/80/122
f 77/77/119 87/87/129 88/88/130
f 77/77/119 88/88/131 84/84/126
f 84/84/126 88/88/131 78/78/120
f 78/78/120 88/88/131 89/89/132
f 78/78/120 89/89/132 74/74/115
f 74/74/115 89/89/132 90/90/133
f 74/74/115 90/90/134 75/75/116
f 75/75/116 90/90/134 85/85/127
f 79/79/121 85/85/127 91/91/135
f 79/79/121 91/91/135 80/80/122
f 80/80/122 91/91/135 92/92/136
f 80/80/122 92/92/136 86/86/128
f 69/69/110 86/86/128 93/93/137
f 69/69/110 93/93/137 81/81/123
f 81/81/123 93/93/137 94/94/138
f 81/81/123 94/94/138 67/67/108
f 67/67/108 94/94/138 95/95/139
f 67/67/108 95/95/139 82/82/124
f 82/82/124 95/95/139 96/96/140
f 82/82/124 96/96/140 70/70/111
f 70/70/111 96/96/140 97/97/141
f 70/70/111 97/97/141 83/83/125
f 72/72/113 83/83/125 98/98/142
f 72/72/113 98/98/143 73/73/114
f 73/73/114 98/98/143 71/71/112
f 71/71/112 98/98/143 87/87/144
f 71/71/118 87/87/129 77/77/119
f 88/88/130 87/87/129 99/99/145
f 88/88/130 99/99/145 89/89/132
f 85/85/127 90/90/134 91/91/135
f 86/86/128 92/92/136 93/93/137
f 95/95/139 94/94/138 96/96/146
f 83/83/125 97/97/141 100/100/147
f 83/83/148 100/100/147 98/98/149
f 98/98/149 100/100/147 87/87/150
f 99/99/145 101/101/151 102/102/152
f 99/99/145 102/102/152 89/89/132
f 89/89/132 102/102/152 90/90/133
f 91/91/135 90/90/134 103/103/153
f 91/91/135 103/103/153 92/92/136
f 92/92/136 103/103/153 104/104/154
f 92/92/136 104/104/154 93/93/137
f 93/93/137 104/104/154 94/94/138
f 94/94/138 104/104/154 105/105/155
f 94/94/138 105/105/155 106/106/156
f 94/94/138 106/106/156 96/96/146
f 96/96/146 106/106/156 107/107/157
f 96/96/140 107/107/157 97/97/141
f 97/97/141 107/107/157 100/100/147
f 100/100/147 107/107/157 108/108/158
f 100/100/147 108/108/158 87/87/150
f 87/87/150 108/108/158 101/101/159
f 87/87/129 101/101/151 99/99/145
f 101/101/160 109/109/161 102/102/162
f 102/102/152 110/110/163 90/90/133
f 90/90/133 110/110/163 103/103/153
f 108/108/158 107/107/157 111/111/164
f 108/108/158 111/111/164 101/101/159
f 102/102/162 109/109/161 112/112/165
f 102/102/162 112/112/165 113/113/166
f 102/102/152 113/113/166 110/110/163
f 103/103/153 114/114/167 104/104/154
f 104/104/154 115/115/168 105/105/169
f 105/105/155 116/116/170 106/106/156
f 104/104/154 114/114/167 115/115/168
f 106/106/156 116/116/170 117/117/171
f 107/107/157 118/118/172 111/111/164
f 109/109/161 119/119/173 112/112/165
f 112/112/165 120/120/174 113/113/166
f 110/110/163 113/113/166 121/121/175
f 110/110/163 121/121/175 122/122/176
f 110/110/163 122/122/177 103/103/153
f 103/103/153 122/122/177 114/114/167
f 115/115/168 123/123/178 105/105/169
f 105/105/169 123/123/178 124/124/179
f 105/105/155 124/124/179 116/116/170
f 116/116/180 125/125/181 117/117/171
f 106/106/156 117/117/171 126/126/182
f 106/106/156 126/126/182 107/107/157
f 107/107/157 126/126/182 118/118/172
f 111/111/164 118/118/172 127/127/183
f 111/111/164 127/127/183 128/128/184
f 111/111/164 128/128/184 101/101/159
f 101/101/159 128/128/184 119/119/173
f 101/101/160 119/119/173 109/109/161
f 112/112/165 119/119/173 120/120/174
f 116/116/170 124/124/179 125/125/185
f 113/113/166 120/120/174 121/121/175
f 115/115/168 114/114/167 123/123/178
f 1/3/186 119/119/173 128/128/184
f 1/3/186 128/128/184 127/127/183
f 1/3/186 127/127/183 6/11/187
f 6/11/187 127/127/183 118/118/172
f 6/11/187 118/118/172 126/126/182
f 6/11/187 126/126/182 9/12/188
f 9/12/188 126/126/182 117/117/171
f 9/12/188 117/117/171 2/5/189
f 2/5/189 117/117/171 125/125/181
f 2/5/189 125/125/181 3/6/190
f 3/6/191 125/125/185 124/124/179
f 3/6/191 124/124/179 123/123/178
f 3/6/191 123/123/178 5/8/192
f 5/8/193 123/123/178 114/114/167
f 5/8/193 114/114/167 122/122/177
f 5/8/193 122/122/177 7/9/194
f 7/9/195 122/122/176 121/121/175
f 7/9/195 121/121/175 10/13/196
f 10/13/197 121/121/175 120/120/174
f 10/13/197 120/120/174 8/10/198
f 8/10/198 120/120/174 119/119/173
f 8/10/198 119/119/173 1/3/186
